<svg width="24" height="23" viewBox="0 0 20 19" fill="none" xmlns="http://www.w3.org/2000/svg">
<path d="M10.0005 -4.37114e-07C4.47549 -1.95608e-07 0.000488472 4.36167 0.000488707 9.74107C0.000488895 14.0457 2.86549 17.6962 6.83799 18.9832C7.33799 19.0749 7.52132 18.7734 7.52132 18.5148C7.52132 18.2835 7.51299 17.6706 7.50882 16.8585C4.72716 17.4459 4.14049 15.5517 4.14049 15.5517C3.68549 14.4274 3.02799 14.1267 3.02799 14.1267C2.12216 13.5228 3.09799 13.5352 3.09799 13.5352C4.10216 13.603 4.62966 14.5389 4.62966 14.5389C5.52132 16.0283 6.97049 15.5979 7.54216 15.3493C7.63216 14.719 7.88966 14.2903 8.17549 14.0466C5.95466 13.8029 3.62049 12.9652 3.62049 9.23304C3.62049 8.16988 4.00799 7.30085 4.64966 6.61933C4.53716 6.37316 4.19966 5.3827 4.73716 4.04116C4.73716 4.04116 5.57466 3.78012 7.48716 5.03988C8.28716 4.82345 9.13716 4.71606 9.98716 4.7111C10.8372 4.71606 11.6872 4.82345 12.4872 5.03988C14.3872 3.78012 15.2247 4.04116 15.2247 4.04116C15.7622 5.3827 15.4247 6.37316 15.3247 6.61933C15.9622 7.30085 16.3497 8.16988 16.3497 9.23304C16.3497 12.9752 14.0122 13.7987 11.7872 14.0383C12.1372 14.3307 12.4622 14.928 12.4622 15.8408C12.4622 17.1444 12.4497 18.1918 12.4497 18.5082C12.4497 18.7635 12.6247 19.0683 13.1372 18.9708C17.138 17.692 20.0005 14.0391 20.0005 9.74107C20.0005 4.36167 15.523 -6.7851e-07 10.0005 -4.37114e-07Z" fill="#bfbfbfd1"/>
</svg>