<svg xmlns="http://www.w3.org/2000/svg" xmlns:xlink="http://www.w3.org/1999/xlink" viewBox="0,0,256 256" width="28" height="28" fill-rule="nonzero"><g fill="#bfbfbfd1" fill-rule="nonzero" stroke="none" stroke-width="1" stroke-linecap="butt" stroke-linejoin="miter" stroke-miterlimit="10" stroke-dasharray="" stroke-dashoffset="0" font-family="none" font-weight="none" font-size="none" text-anchor="none" style="mix-blend-mode: normal"><g transform="scale(10.66667,10.66667)">
<path d="M12,2c-5.523,0 -10,4.477 -10,10c0,5.523 4.477,10 10,10c5.523,0 10,-4.477 10,-10c0,-5.523 -4.477,-10 -10,-10zM17.515,16h-1.309c-0.496,0 -0.653,-0.491 -1.518,-1.5c-0.75,-0.875 -1.138,-1 -1.329,-1c-0.268,0 -0.359,0.066 -0.359,0.467v1.486c0,0.333 -0.086,0.547 -0.925,0.547c-1.385,0 -2.95,-0.938 -4.137,-2.563c-1.638,-2.241 -1.938,-4.19 -1.938,-4.55c0,-0.2 0.063,-0.387 0.445,-0.387h1.321c0.331,0 0.458,0.147 0.585,0.534c0.587,1.966 1.462,3.466 1.907,3.466c0.165,0 0.242,-0.08 0.242,-0.52v-1.812c-0.051,-0.934 -0.5,-1.014 -0.5,-1.348c0,-0.161 0.106,-0.32 0.31,-0.32h2.324c0.28,0 0.366,0.16 0.366,0.507v2.593c0,0.293 0.224,0.4 0.312,0.4c0.165,0 0.32,0.008 0.625,-0.313c0.94,-1.108 1.756,-2.787 1.756,-2.787c0.09,-0.2 0.242,-0.4 0.573,-0.4h1.309c0.293,0 0.417,0.131 0.425,0.313c0.003,0.063 -0.008,0.133 -0.031,0.208c-0.165,0.8 -1.857,3.176 -1.844,3.176c-0.072,0.123 -0.12,0.211 -0.125,0.304c-0.005,0.088 0.031,0.18 0.125,0.31c0.139,0.2 0.443,0.568 0.75,0.94c0.555,0.671 1,1.375 1.097,1.663c0.021,0.078 0.03,0.149 0.028,0.212c-0.007,0.246 -0.182,0.374 -0.485,0.374z"></path></g></g>
</svg>