<svg width="37" height="37" viewBox="0 0 37 37" fill="none" xmlns="http://www.w3.org/2000/svg">
    <path fill-rule="evenodd" clip-rule="evenodd" d="M18.3452 0C13.9718 0.00246981 9.74793 1.59197 6.45789 4.47333C3.1224 7.39803 0.920657 11.4018 0.237393 15.785C-0.460976 20.1867 0.392575 24.6942 2.65189 28.5358C4.87877 32.3313 8.39054 35.2045 12.5519 36.6355C13.4759 36.8097 13.8041 36.2267 13.8041 35.7298C13.8041 35.2807 13.7857 33.8012 13.7784 32.2318C8.68173 33.3685 7.60739 30.0135 7.60739 30.0135C7.27745 28.8841 6.556 27.9092 5.57239 27.2635C3.90956 26.0957 5.70073 26.125 5.70073 26.125C6.28189 26.2057 6.83739 26.4238 7.32323 26.7593C7.81089 27.0948 8.21606 27.5403 8.50939 28.061C8.75689 28.5248 9.09239 28.9337 9.49573 29.2618C10.0964 29.7587 10.8349 30.0594 11.6118 30.1237C12.3887 30.1879 13.1666 30.0126 13.8407 29.6212C13.9232 28.6678 14.3357 27.7768 15.0049 27.1095C10.9367 26.6347 6.65589 25.0232 6.65589 17.8145C6.62754 15.9557 7.3027 14.1549 8.54606 12.7728C7.98506 11.1506 8.04779 9.37757 8.72206 7.799C8.72206 7.799 10.2602 7.29483 13.7619 9.724C16.7619 8.88209 19.9358 8.88209 22.9359 9.724C26.4302 7.29483 27.9592 7.799 27.9592 7.799C28.6376 9.372 28.7036 11.1503 28.1444 12.7728C29.3864 14.1554 30.0602 15.9562 30.0309 17.8145C30.0309 25.036 25.7427 26.6237 21.6636 27.0875C22.1038 27.5472 22.4422 28.0945 22.6567 28.6937C22.8712 29.293 22.957 29.9307 22.9084 30.5653C22.9084 33.0807 22.8864 35.1065 22.8864 35.7243C22.8864 36.223 23.2164 36.8097 24.1459 36.6263C28.3 35.1894 31.8034 32.3147 34.0239 28.5212C36.2792 24.6828 37.1301 20.1798 36.4311 15.7832C35.7472 11.404 33.5476 7.4039 30.2161 4.48067C26.9318 1.6008 22.7151 0.00893512 18.3471 0H18.3452Z" fill="#ECE8E8" />
</svg>