<svg width="44" height="44" viewBox="0 0 44 44" fill="none" xmlns="http://www.w3.org/2000/svg">
    <g clip-path="url(#clip0_417_191)">
        <path d="M22 17.7649C20.9744 17.754 19.9688 18.0484 19.111 18.6107C18.2532 19.1729 17.582 19.9775 17.1827 20.9223C16.7835 21.8671 16.6743 22.9092 16.8691 23.9162C17.0638 24.9232 17.5536 25.8495 18.2763 26.5773C18.9989 27.3051 19.9217 27.8016 20.9273 28.0035C21.9328 28.2054 22.9757 28.1036 23.9233 27.7112C24.8709 27.3187 25.6803 26.6533 26.2487 25.7995C26.817 24.9458 27.1186 23.9422 27.115 22.9166C27.1174 22.2425 26.987 21.5745 26.7313 20.9508C26.4755 20.327 26.0994 19.7598 25.6244 19.2814C25.1495 18.803 24.5849 18.4229 23.963 18.1627C23.3412 17.9025 22.6741 17.7673 22 17.7649Z" fill="#ECE8E8" />
        <path d="M22 0C17.6488 0 13.3953 1.29028 9.77746 3.70767C6.15958 6.12506 3.33979 9.56099 1.67466 13.581C0.00953229 17.6009 -0.426141 22.0244 0.422734 26.292C1.27161 30.5596 3.36691 34.4796 6.44366 37.5564C9.52042 40.6331 13.4404 42.7284 17.708 43.5773C21.9756 44.4262 26.3991 43.9905 30.419 42.3253C34.439 40.6602 37.875 37.8404 40.2923 34.2225C42.7097 30.6047 44 26.3512 44 22C44 16.1652 41.6822 10.5695 37.5564 6.44365C33.4306 2.31785 27.8348 0 22 0ZM32.2117 28.655C34.9067 28.655 36.3 25.2633 36.3 21.9267C36.3042 18.67 35.0875 15.5301 32.89 13.1267C31.3578 11.6184 29.5278 10.4464 27.5169 9.68563C25.506 8.92484 23.3585 8.59198 21.2117 8.70833C17.6102 8.75666 14.1748 10.2313 11.6591 12.809C9.14333 15.3866 7.75252 18.8567 7.79168 22.4583C7.73769 26.0423 9.10615 29.5017 11.5974 32.0788C14.0886 34.6559 17.4996 36.1408 21.0833 36.2083C23.4143 36.2043 25.7009 35.5709 27.7017 34.375C27.8501 34.2343 28.028 34.1285 28.2225 34.0653C28.417 34.0021 28.6231 33.9831 28.8259 34.0096C29.0286 34.0361 29.2229 34.1075 29.3946 34.2186C29.5663 34.3297 29.711 34.4777 29.8183 34.6518C29.9255 34.8259 29.9926 35.0218 30.0146 35.2251C30.0366 35.4284 30.013 35.634 29.9454 35.827C29.8779 36.0201 29.7682 36.1956 29.6242 36.3408C29.4803 36.4861 29.3057 36.5974 29.1133 36.6667C26.6858 38.1169 23.9111 38.8834 21.0833 38.885C16.7702 38.8174 12.6598 37.0427 9.65292 33.9499C6.64598 30.857 4.98777 26.6983 5.04168 22.385C5.00741 18.0555 6.68954 13.8887 9.71998 10.7964C12.7504 7.70415 16.8824 5.9382 21.2117 5.885C23.7327 5.76801 26.25 6.1862 28.5978 7.11205C30.9456 8.0379 33.0707 9.45042 34.8333 11.2567C37.543 14.1781 39.0491 18.0154 39.05 22C39.05 27.5 36.1717 31.4783 32.2117 31.4783C31.3329 31.5419 30.4535 31.3615 29.6707 30.9571C28.8878 30.5528 28.2318 29.9401 27.775 29.1867C27.741 29.1305 27.6958 29.082 27.6421 29.0441C27.5885 29.0063 27.5276 28.9799 27.4633 28.9667C27.3966 28.9493 27.3265 28.9485 27.2594 28.9645C27.1923 28.9805 27.1301 29.0127 27.0783 29.0583C25.675 30.2471 23.8941 30.897 22.055 30.8917C20.0228 30.7938 18.1062 29.9176 16.7026 28.4448C15.2989 26.9719 14.516 25.0154 14.516 22.9808C14.516 20.9463 15.2989 18.9897 16.7026 17.5169C18.1062 16.044 20.0228 15.1679 22.055 15.07C23.6214 15.072 25.15 15.5517 26.4367 16.445C26.5085 16.4887 26.5909 16.5118 26.675 16.5118C26.7591 16.5118 26.8415 16.4887 26.9133 16.445C26.9904 16.4097 27.0557 16.3528 27.1012 16.2812C27.1468 16.2097 27.1707 16.1265 27.17 16.0417V14.905C27.17 14.5403 27.3149 14.1906 27.5727 13.9327C27.8306 13.6749 28.1803 13.53 28.545 13.53C28.9097 13.53 29.2594 13.6749 29.5173 13.9327C29.7751 14.1906 29.92 14.5403 29.92 14.905V26.785C29.92 28.0133 30.69 28.655 32.2117 28.655Z" fill="#ECE8E8" />
    </g>
    <defs>
        <clipPath id="clip0_417_191">
            <rect width="44" height="44" fill="white" />
        </clipPath>
    </defs>
</svg>