<svg width="44" height="44" viewBox="0 0 44 44" fill="none" xmlns="http://www.w3.org/2000/svg">
    <path fill-rule="evenodd" clip-rule="evenodd" d="M22 42.1666C33.1375 42.1666 42.1667 33.1374 42.1667 21.9999C42.1667 10.8624 33.1375 1.83325 22 1.83325C10.8625 1.83325 1.83337 10.8624 1.83337 21.9999C1.83337 33.1374 10.8625 42.1666 22 42.1666ZM9.13371 20.4874C9.13371 20.3004 9.25654 20.1244 9.43071 20.0584L32.0247 11.4473C32.1027 11.4176 32.1872 11.4098 32.2693 11.4247C32.3513 11.4395 32.4278 11.4765 32.4904 11.5316C32.615 11.6416 32.6737 11.8194 32.6334 11.9826L28.127 30.9356C28.1098 31.009 28.0746 31.0771 28.0247 31.1337C27.9748 31.1903 27.9117 31.2337 27.841 31.2601C27.7702 31.2864 27.694 31.2948 27.6192 31.2846C27.5443 31.2744 27.4732 31.2458 27.412 31.2014L22.6105 27.7272L22.4272 27.8482C21.6985 28.3331 20.9676 28.8147 20.2345 29.2929C19.6627 29.6666 19.0864 30.0333 18.5057 30.3929C18.2932 30.5238 18.078 30.6503 17.8604 30.7724C17.7766 30.8198 17.691 30.8638 17.6037 30.9044L17.4607 30.9649C17.2334 31.0391 16.9901 31.0502 16.757 30.9969C16.5239 30.9436 16.3096 30.828 16.137 30.6624C15.9481 30.4613 15.8197 30.2109 15.7667 29.9401L15.7649 29.9309L14.2927 22.6911L9.43071 20.9164C9.34486 20.8815 9.27104 20.8224 9.2183 20.7462C9.16555 20.67 9.13615 20.5801 9.13371 20.4874ZM16.0857 22.3079L17.4185 28.8658L18.9035 24.3503L26.4972 17.5394C26.5452 17.4939 26.5757 17.4331 26.5834 17.3674C26.5911 17.3017 26.5755 17.2354 26.5394 17.1801C26.5011 17.1266 26.4453 17.0882 26.3817 17.0715C26.3181 17.0548 26.2507 17.0607 26.191 17.0884L16.0857 22.3079Z" fill="#ECE8E8" />
</svg>