<svg width="64" height="64" viewBox="0 0 64 64" fill="none" xmlns="http://www.w3.org/2000/svg">
    <path d="M32 64C49.6733 64 64 49.6733 64 32C64 14.3267 49.6733 0 32 0C14.3267 0 0 14.3267 0 32C0 49.6733 14.3267 64 32 64Z" fill="#333333" />
    <path d="M50.6172 45.9631H13.3812L18.0359 34.3271H45.9626L50.6172 45.9631ZM45.9626 34.3271H18.0372V16.8737C18.0372 16.565 18.1599 16.2689 18.3782 16.0507C18.5964 15.8324 18.8925 15.7097 19.2012 15.7097H44.8012C44.9542 15.7092 45.1058 15.7389 45.2473 15.7973C45.3888 15.8556 45.5173 15.9413 45.6255 16.0495C45.7337 16.1577 45.8194 16.2862 45.8777 16.4277C45.936 16.5691 45.9658 16.7207 45.9652 16.8737L45.9626 34.3271ZM50.6172 45.9631H13.3812C13.3812 46.5805 13.6265 47.1726 14.0631 47.6092C14.4997 48.0458 15.0918 48.2911 15.7092 48.2911H48.2906C48.5962 48.2911 48.8989 48.2308 49.1812 48.1138C49.4636 47.9968 49.7202 47.8253 49.9362 47.6091C50.1523 47.3929 50.3237 47.1363 50.4405 46.8538C50.5573 46.5714 50.6174 46.2687 50.6172 45.9631Z" fill="white" />
    <path d="M27.9267 41.8906L27.3453 44.2172H36.6547L36.072 41.8906H27.9267ZM43.636 18.0359H20.3627V31.9999H43.636V18.0359ZM42.2693 39.5626H21.7307L21.2653 40.7266H42.736L42.2693 39.5626ZM41.8027 38.3986L41.3387 37.2346H22.6627L22.196 38.3986H41.8027Z" fill="#8D8D8D" />
</svg>