<svg xmlns="http://www.w3.org/2000/svg" xmlns:xlink="http://www.w3.org/1999/xlink"><defs>
        <clipPath id="clip0_417_191">
            <rect width="44" height="44" fill="white"/>
        </clipPath>
    
        <linearGradient id="paint0_linear_315_52" x1="32" y1="6.93168e-07" x2="43.6294" y2="61.6284" gradientUnits="userSpaceOnUse">
            <stop stop-color="#430DBF"/>
            <stop offset="1" stop-color="#8450FB"/>
        </linearGradient>
    </defs><symbol id="arrow-down" viewBox="0 0 24 24">
<path d="M12 4.5V19.5M12 19.5L18.75 12.75M12 19.5L5.25 12.75" stroke-width="2" stroke-linecap="round" stroke-linejoin="round"/>
</symbol><symbol id="arrow-left" viewBox="0 0 24 24">
<path d="M19.5 12L4.5 12M4.5 12L11.25 18.75M4.5 12L11.25 5.25" stroke-width="1.5" stroke-linecap="round" stroke-linejoin="round"/>
</symbol><symbol id="arrow-right" viewBox="0 0 24 24">
<path d="M4.5 12L19.5 12M19.5 12L12.75 5.25M19.5 12L12.75 18.75" stroke-width="1.5" stroke-linecap="round" stroke-linejoin="round"/>
</symbol><symbol id="freelance" viewBox="0 0 64 64">
    <path d="M32 64C49.6733 64 64 49.6733 64 32C64 14.3267 49.6733 0 32 0C14.3267 0 0 14.3267 0 32C0 49.6733 14.3267 64 32 64Z"/>
    <path d="M50.6172 45.9631H13.3812L18.0359 34.3271H45.9626L50.6172 45.9631ZM45.9626 34.3271H18.0372V16.8737C18.0372 16.565 18.1599 16.2689 18.3782 16.0507C18.5964 15.8324 18.8925 15.7097 19.2012 15.7097H44.8012C44.9542 15.7092 45.1058 15.7389 45.2473 15.7973C45.3888 15.8556 45.5173 15.9413 45.6255 16.0495C45.7337 16.1577 45.8194 16.2862 45.8777 16.4277C45.936 16.5691 45.9658 16.7207 45.9652 16.8737L45.9626 34.3271ZM50.6172 45.9631H13.3812C13.3812 46.5805 13.6265 47.1726 14.0631 47.6092C14.4997 48.0458 15.0918 48.2911 15.7092 48.2911H48.2906C48.5962 48.2911 48.8989 48.2308 49.1812 48.1138C49.4636 47.9968 49.7202 47.8253 49.9362 47.6091C50.1523 47.3929 50.3237 47.1363 50.4405 46.8538C50.5573 46.5714 50.6174 46.2687 50.6172 45.9631Z"/>
    <path d="M27.9267 41.8906L27.3453 44.2172H36.6547L36.072 41.8906H27.9267ZM43.636 18.0359H20.3627V31.9999H43.636V18.0359ZM42.2693 39.5626H21.7307L21.2653 40.7266H42.736L42.2693 39.5626ZM41.8027 38.3986L41.3387 37.2346H22.6627L22.196 38.3986H41.8027Z"/>
</symbol><symbol id="git-hub" viewBox="0 0 37 37">
    <path fill-rule="evenodd" clip-rule="evenodd" d="M18.3452 0C13.9718 0.00246981 9.74793 1.59197 6.45789 4.47333C3.1224 7.39803 0.920657 11.4018 0.237393 15.785C-0.460976 20.1867 0.392575 24.6942 2.65189 28.5358C4.87877 32.3313 8.39054 35.2045 12.5519 36.6355C13.4759 36.8097 13.8041 36.2267 13.8041 35.7298C13.8041 35.2807 13.7857 33.8012 13.7784 32.2318C8.68173 33.3685 7.60739 30.0135 7.60739 30.0135C7.27745 28.8841 6.556 27.9092 5.57239 27.2635C3.90956 26.0957 5.70073 26.125 5.70073 26.125C6.28189 26.2057 6.83739 26.4238 7.32323 26.7593C7.81089 27.0948 8.21606 27.5403 8.50939 28.061C8.75689 28.5248 9.09239 28.9337 9.49573 29.2618C10.0964 29.7587 10.8349 30.0594 11.6118 30.1237C12.3887 30.1879 13.1666 30.0126 13.8407 29.6212C13.9232 28.6678 14.3357 27.7768 15.0049 27.1095C10.9367 26.6347 6.65589 25.0232 6.65589 17.8145C6.62754 15.9557 7.3027 14.1549 8.54606 12.7728C7.98506 11.1506 8.04779 9.37757 8.72206 7.799C8.72206 7.799 10.2602 7.29483 13.7619 9.724C16.7619 8.88209 19.9358 8.88209 22.9359 9.724C26.4302 7.29483 27.9592 7.799 27.9592 7.799C28.6376 9.372 28.7036 11.1503 28.1444 12.7728C29.3864 14.1554 30.0602 15.9562 30.0309 17.8145C30.0309 25.036 25.7427 26.6237 21.6636 27.0875C22.1038 27.5472 22.4422 28.0945 22.6567 28.6937C22.8712 29.293 22.957 29.9307 22.9084 30.5653C22.9084 33.0807 22.8864 35.1065 22.8864 35.7243C22.8864 36.223 23.2164 36.8097 24.1459 36.6263C28.3 35.1894 31.8034 32.3147 34.0239 28.5212C36.2792 24.6828 37.1301 20.1798 36.4311 15.7832C35.7472 11.404 33.5476 7.4039 30.2161 4.48067C26.9318 1.6008 22.7151 0.00893512 18.3471 0H18.3452Z"/>
</symbol><symbol id="link" viewBox="0 0 18 18">
    <path d="M7 3H1V17H15V11" stroke-width="2" stroke-linecap="round" stroke-linejoin="round"/>
    <path d="M9 9L16 2" stroke-width="2" stroke-linecap="round" stroke-linejoin="round"/>
    <path d="M11 1H17V7" stroke-width="2" stroke-linecap="round" stroke-linejoin="round"/>
</symbol><symbol id="mail" viewBox="0 0 44 44">
    <g clip-path="url(#clip0_417_191)">
        <path d="M22 17.7649C20.9744 17.754 19.9688 18.0484 19.111 18.6107C18.2532 19.1729 17.582 19.9775 17.1827 20.9223C16.7835 21.8671 16.6743 22.9092 16.8691 23.9162C17.0638 24.9232 17.5536 25.8495 18.2763 26.5773C18.9989 27.3051 19.9217 27.8016 20.9273 28.0035C21.9328 28.2054 22.9757 28.1036 23.9233 27.7112C24.8709 27.3187 25.6803 26.6533 26.2487 25.7995C26.817 24.9458 27.1186 23.9422 27.115 22.9166C27.1174 22.2425 26.987 21.5745 26.7313 20.9508C26.4755 20.327 26.0994 19.7598 25.6244 19.2814C25.1495 18.803 24.5849 18.4229 23.963 18.1627C23.3412 17.9025 22.6741 17.7673 22 17.7649Z"/>
        <path d="M22 0C17.6488 0 13.3953 1.29028 9.77746 3.70767C6.15958 6.12506 3.33979 9.56099 1.67466 13.581C0.00953229 17.6009 -0.426141 22.0244 0.422734 26.292C1.27161 30.5596 3.36691 34.4796 6.44366 37.5564C9.52042 40.6331 13.4404 42.7284 17.708 43.5773C21.9756 44.4262 26.3991 43.9905 30.419 42.3253C34.439 40.6602 37.875 37.8404 40.2923 34.2225C42.7097 30.6047 44 26.3512 44 22C44 16.1652 41.6822 10.5695 37.5564 6.44365C33.4306 2.31785 27.8348 0 22 0ZM32.2117 28.655C34.9067 28.655 36.3 25.2633 36.3 21.9267C36.3042 18.67 35.0875 15.5301 32.89 13.1267C31.3578 11.6184 29.5278 10.4464 27.5169 9.68563C25.506 8.92484 23.3585 8.59198 21.2117 8.70833C17.6102 8.75666 14.1748 10.2313 11.6591 12.809C9.14333 15.3866 7.75252 18.8567 7.79168 22.4583C7.73769 26.0423 9.10615 29.5017 11.5974 32.0788C14.0886 34.6559 17.4996 36.1408 21.0833 36.2083C23.4143 36.2043 25.7009 35.5709 27.7017 34.375C27.8501 34.2343 28.028 34.1285 28.2225 34.0653C28.417 34.0021 28.6231 33.9831 28.8259 34.0096C29.0286 34.0361 29.2229 34.1075 29.3946 34.2186C29.5663 34.3297 29.711 34.4777 29.8183 34.6518C29.9255 34.8259 29.9926 35.0218 30.0146 35.2251C30.0366 35.4284 30.013 35.634 29.9454 35.827C29.8779 36.0201 29.7682 36.1956 29.6242 36.3408C29.4803 36.4861 29.3057 36.5974 29.1133 36.6667C26.6858 38.1169 23.9111 38.8834 21.0833 38.885C16.7702 38.8174 12.6598 37.0427 9.65292 33.9499C6.64598 30.857 4.98777 26.6983 5.04168 22.385C5.00741 18.0555 6.68954 13.8887 9.71998 10.7964C12.7504 7.70415 16.8824 5.9382 21.2117 5.885C23.7327 5.76801 26.25 6.1862 28.5978 7.11205C30.9456 8.0379 33.0707 9.45042 34.8333 11.2567C37.543 14.1781 39.0491 18.0154 39.05 22C39.05 27.5 36.1717 31.4783 32.2117 31.4783C31.3329 31.5419 30.4535 31.3615 29.6707 30.9571C28.8878 30.5528 28.2318 29.9401 27.775 29.1867C27.741 29.1305 27.6958 29.082 27.6421 29.0441C27.5885 29.0063 27.5276 28.9799 27.4633 28.9667C27.3966 28.9493 27.3265 28.9485 27.2594 28.9645C27.1923 28.9805 27.1301 29.0127 27.0783 29.0583C25.675 30.2471 23.8941 30.897 22.055 30.8917C20.0228 30.7938 18.1062 29.9176 16.7026 28.4448C15.2989 26.9719 14.516 25.0154 14.516 22.9808C14.516 20.9463 15.2989 18.9897 16.7026 17.5169C18.1062 16.044 20.0228 15.1679 22.055 15.07C23.6214 15.072 25.15 15.5517 26.4367 16.445C26.5085 16.4887 26.5909 16.5118 26.675 16.5118C26.7591 16.5118 26.8415 16.4887 26.9133 16.445C26.9904 16.4097 27.0557 16.3528 27.1012 16.2812C27.1468 16.2097 27.1707 16.1265 27.17 16.0417V14.905C27.17 14.5403 27.3149 14.1906 27.5727 13.9327C27.8306 13.6749 28.1803 13.53 28.545 13.53C28.9097 13.53 29.2594 13.6749 29.5173 13.9327C29.7751 14.1906 29.92 14.5403 29.92 14.905V26.785C29.92 28.0133 30.69 28.655 32.2117 28.655Z"/>
    </g>
    
</symbol><symbol id="pin" viewBox="0 0 22 20">
    <path d="M10.8367 19C13.4456 19 15.9476 18.0518 17.7923 16.364C19.6371 14.6761 20.6734 12.3869 20.6734 10C20.6734 7.61305 19.6371 5.32387 17.7923 3.63604C15.9476 1.94821 13.4456 1 10.8367 1C8.22786 1 5.72585 1.94821 3.88111 3.63604C2.03637 5.32387 1 7.61305 1 10C1 12.3869 2.03637 14.6761 3.88111 16.364C5.72585 18.0518 8.22786 19 10.8367 19ZM6.73809 10C6.73809 9.00544 7.1699 8.05161 7.93855 7.34835C8.70719 6.64509 9.74969 6.25 10.8367 6.25"/>
    <path d="M6.73809 10C6.73809 9.00544 7.1699 8.05161 7.93855 7.34835C8.70719 6.64509 9.74969 6.25 10.8367 6.25M10.8367 19C13.4456 19 15.9476 18.0518 17.7923 16.364C19.6371 14.6761 20.6734 12.3869 20.6734 10C20.6734 7.61305 19.6371 5.32387 17.7923 3.63604C15.9476 1.94821 13.4456 1 10.8367 1C8.22786 1 5.72585 1.94821 3.88111 3.63604C2.03637 5.32387 1 7.61305 1 10C1 12.3869 2.03637 14.6761 3.88111 16.364C5.72585 18.0518 8.22786 19 10.8367 19Z" stroke-width="2" stroke-linecap="round" stroke-linejoin="round"/>
</symbol><symbol id="stack-done" viewBox="0 0 18 18">
    <path fill-rule="evenodd" clip-rule="evenodd" d="M9.00049 18C10.6264 18.0001 12.2219 17.5598 13.6176 16.7259C15.0133 15.8919 16.157 14.6955 16.9273 13.2636C17.6975 11.8318 18.0655 10.218 17.9921 8.59378C17.9187 6.96956 17.4067 5.39556 16.5105 4.039L9.35549 11.989C9.02128 12.3604 8.56016 12.5933 8.06287 12.6418C7.56558 12.6903 7.06816 12.5509 6.66849 12.251L3.40049 9.8C3.18832 9.64087 3.04805 9.40397 3.01054 9.14142C2.97304 8.87887 3.04136 8.61217 3.20049 8.4C3.35962 8.18783 3.59652 8.04756 3.85907 8.01005C4.12162 7.97254 4.38832 8.04087 4.60049 8.2L7.86849 10.651L15.2145 2.49C14.1503 1.47411 12.8533 0.734601 11.437 0.336222C10.0207 -0.0621564 8.52837 -0.107256 7.09062 0.204872C5.65287 0.517001 4.31356 1.17684 3.18996 2.12661C2.06636 3.07639 1.19273 4.28713 0.645571 5.65284C0.0984067 7.01855 -0.105607 8.49757 0.051393 9.96041C0.208393 11.4233 0.721619 12.8253 1.54613 14.0438C2.37065 15.2623 3.48131 16.2601 4.78087 16.9498C6.08042 17.6395 7.52925 18.0001 9.00049 18Z"/>
</symbol><symbol id="telegram" viewBox="0 0 44 44">
    <path fill-rule="evenodd" clip-rule="evenodd" d="M22 42.1666C33.1375 42.1666 42.1667 33.1374 42.1667 21.9999C42.1667 10.8624 33.1375 1.83325 22 1.83325C10.8625 1.83325 1.83337 10.8624 1.83337 21.9999C1.83337 33.1374 10.8625 42.1666 22 42.1666ZM9.13371 20.4874C9.13371 20.3004 9.25654 20.1244 9.43071 20.0584L32.0247 11.4473C32.1027 11.4176 32.1872 11.4098 32.2693 11.4247C32.3513 11.4395 32.4278 11.4765 32.4904 11.5316C32.615 11.6416 32.6737 11.8194 32.6334 11.9826L28.127 30.9356C28.1098 31.009 28.0746 31.0771 28.0247 31.1337C27.9748 31.1903 27.9117 31.2337 27.841 31.2601C27.7702 31.2864 27.694 31.2948 27.6192 31.2846C27.5443 31.2744 27.4732 31.2458 27.412 31.2014L22.6105 27.7272L22.4272 27.8482C21.6985 28.3331 20.9676 28.8147 20.2345 29.2929C19.6627 29.6666 19.0864 30.0333 18.5057 30.3929C18.2932 30.5238 18.078 30.6503 17.8604 30.7724C17.7766 30.8198 17.691 30.8638 17.6037 30.9044L17.4607 30.9649C17.2334 31.0391 16.9901 31.0502 16.757 30.9969C16.5239 30.9436 16.3096 30.828 16.137 30.6624C15.9481 30.4613 15.8197 30.2109 15.7667 29.9401L15.7649 29.9309L14.2927 22.6911L9.43071 20.9164C9.34486 20.8815 9.27104 20.8224 9.2183 20.7462C9.16555 20.67 9.13615 20.5801 9.13371 20.4874ZM16.0857 22.3079L17.4185 28.8658L18.9035 24.3503L26.4972 17.5394C26.5452 17.4939 26.5757 17.4331 26.5834 17.3674C26.5911 17.3017 26.5755 17.2354 26.5394 17.1801C26.5011 17.1266 26.4453 17.0882 26.3817 17.0715C26.3181 17.0548 26.2507 17.0607 26.191 17.0884L16.0857 22.3079Z"/>
</symbol><symbol id="tutorplace" viewBox="0 0 64 64">
    <rect width="64" height="64" rx="32"/>
    <path d="M36.1403 46.0455C36.1403 47.2144 36.0648 48.2115 35.9137 49.0366C35.7794 49.8617 35.5863 50.5322 35.3345 51.0479C35.0826 51.5636 34.772 51.9418 34.4026 52.1824C34.0501 52.4231 33.6639 52.5434 33.2442 52.5434C32.9252 52.5434 32.5726 52.4317 32.1864 52.2082C31.8003 51.9847 31.4309 51.7097 31.0783 51.3831C30.7425 51.0565 30.4571 50.7213 30.2221 50.3774C30.0038 50.0336 29.8947 49.7328 29.8947 49.475C29.8947 49.3031 29.9115 49.1913 29.9451 49.1398C29.9954 49.1054 30.0542 49.0882 30.1213 49.0882C30.2053 49.1054 30.2976 49.1312 30.3984 49.1655C30.5159 49.1999 30.6418 49.2171 30.7761 49.2171C31.2462 49.2171 31.582 48.9163 31.7835 48.3146C32.0018 47.6958 32.1109 46.7159 32.1109 45.3751V16.2119C30.5159 16.3494 28.9797 16.6416 27.5022 17.0886C26.0247 17.5183 24.7235 18.1716 23.5987 19.0483C22.4738 19.925 21.5755 21.0681 20.904 22.4777C20.2324 23.8701 19.8966 25.5891 19.8966 27.6348C19.8966 28.5459 19.9805 29.371 20.1484 30.1102C20.3331 30.8322 20.5682 31.4854 20.8536 32.0699C21.139 32.6543 21.4496 33.17 21.7854 33.617C22.138 34.0639 22.4822 34.4593 22.8179 34.8031C23.1034 34.7171 23.3048 34.7515 23.4224 34.9062C23.5399 35.061 23.5987 35.2758 23.5987 35.5509C23.5987 35.8947 23.5231 36.2557 23.372 36.6339C23.2377 36.9949 23.053 37.3301 22.8179 37.6395C22.5829 37.9317 22.3143 38.181 22.0121 38.3873C21.7266 38.5764 21.4328 38.6709 21.1306 38.6709C20.9963 38.6709 20.862 38.6537 20.7277 38.6193C20.6101 38.5849 20.4842 38.5076 20.3499 38.3873C19.9805 38.1122 19.5356 37.6653 19.0151 37.0464C18.4947 36.4104 17.9994 35.6282 17.5293 34.7C17.0592 33.7717 16.6562 32.7145 16.3204 31.5284C15.9847 30.325 15.8168 29.0272 15.8168 27.6348C15.8168 25.0906 16.2785 22.8473 17.2019 20.9048C18.1253 18.9623 19.4097 17.3378 21.0551 16.0314C22.7004 14.7077 24.648 13.7107 26.8978 13.0403C29.1643 12.3699 31.6408 12.0346 34.3271 12.0346C34.9483 12.0346 35.6954 12.0432 36.5685 12.0604C37.4583 12.0604 38.3398 12.069 39.2128 12.0862C40.0859 12.1034 40.8666 12.1206 41.5549 12.1378C42.2601 12.1378 42.7386 12.1378 42.9904 12.1378C43.2087 12.1378 43.385 12.1206 43.5193 12.0862C43.6704 12.0346 43.7879 11.9831 43.8719 11.9315C43.9726 11.8799 44.0482 11.837 44.0985 11.8026C44.1489 11.751 44.1909 11.7252 44.2245 11.7252C44.3084 11.7252 44.384 11.7854 44.4511 11.9057C44.5351 12.0089 44.6022 12.1464 44.6526 12.3183C44.7197 12.473 44.7701 12.6535 44.8037 12.8598C44.8373 13.0661 44.8541 13.2723 44.8541 13.4786C44.8541 13.788 44.8121 14.1147 44.7281 14.4585C44.6442 14.7851 44.5183 15.0859 44.3504 15.361C44.1825 15.6188 43.9726 15.8337 43.7208 16.0056C43.4689 16.1775 43.1751 16.2634 42.8393 16.2634C42.6546 16.2634 42.3105 16.2634 41.8068 16.2634C41.3199 16.2462 40.7574 16.2291 40.1194 16.2119C39.4814 16.1947 38.8099 16.1775 38.1047 16.1603C37.3996 16.1431 36.7448 16.1259 36.1403 16.1087V46.0455Z"/>
    <path d="M21.4055 38.6507C21.1625 38.7112 18.9383 38.7356 18.7326 38.6507L20.4943 37.6817C20.4943 37.6817 21.6485 38.5901 21.4055 38.6507Z"/>
    <path d="M33.798 52.4586C33.5119 52.5714 32.966 52.6302 31.2466 52.7009L31.0644 51.6107L32.3401 51.1868L33.8588 51.7924L33.798 52.4586Z"/>
    <path d="M44.4288 11.8827C44.339 11.6611 43.9769 11.5702 42.3999 11.5193L42.5457 12.3671C42.7279 12.4277 43.1045 12.5609 43.1531 12.6094C43.2017 12.6578 44.0238 12.1451 44.4288 11.8827Z"/>
    <path d="M34.245 46.1451C34.245 47.3244 34.1688 48.3303 34.0164 49.1628C33.881 49.9953 33.6863 50.6717 33.4324 51.192C33.1784 51.7123 32.8652 52.0938 32.4928 52.3366C32.1372 52.5794 31.7478 52.7009 31.3246 52.7009C31.0029 52.7009 30.6474 52.5881 30.258 52.3627C29.8686 52.1372 29.4962 51.8597 29.1406 51.5302C28.802 51.2007 28.5142 50.8625 28.2772 50.5156C28.0571 50.1687 27.9471 49.8652 27.9471 49.6051C27.9471 49.4316 27.964 49.3189 27.9979 49.2669C28.0487 49.2322 28.1079 49.2149 28.1756 49.2149C28.2603 49.2322 28.3534 49.2582 28.455 49.2929C28.5735 49.3276 28.7005 49.3449 28.8359 49.3449C29.3099 49.3449 29.6485 49.0414 29.8517 48.4344C30.0718 47.8101 30.1818 46.8215 30.1818 45.4687V16.0459C28.5735 16.1846 27.0244 16.4795 25.5346 16.9304C24.0447 17.364 22.7327 18.023 21.5984 18.9075C20.4641 19.792 19.5583 20.9453 18.8811 22.3675C18.2039 23.7723 17.8653 25.5066 17.8653 27.5705C17.8653 28.4897 17.95 29.3221 18.1193 30.0679C18.3055 30.7963 18.5425 31.4554 18.8303 32.045C19.1181 32.6347 19.4313 33.155 19.7699 33.6059C20.1255 34.0569 20.4725 34.4557 20.8111 34.8026C21.0989 34.7159 21.3021 34.7506 21.4206 34.9067C21.5391 35.0628 21.5984 35.2795 21.5984 35.557C21.5984 35.9039 21.5222 36.2681 21.3698 36.6497C21.2344 37.0139 21.0481 37.3521 20.8111 37.6642C20.5741 37.9591 20.3032 38.2106 19.9985 38.4187C19.7107 38.6095 19.4144 38.7048 19.1097 38.7048C18.9742 38.7048 18.8388 38.6875 18.7033 38.6528C18.5848 38.6181 18.4579 38.5401 18.3224 38.4187C17.95 38.1412 17.5013 37.6903 16.9765 37.0659C16.4517 36.4242 15.9522 35.6351 15.4782 34.6985C15.0042 33.762 14.5978 32.6954 14.2592 31.4987C13.9206 30.2847 13.7513 28.9753 13.7513 27.5705C13.7513 25.0037 14.2169 22.7404 15.1481 20.7806C16.0792 18.8208 17.3743 17.1819 19.0335 15.8638C20.6926 14.5283 22.6565 13.5224 24.9251 12.846C27.2106 12.1697 29.7078 11.8315 32.4166 11.8315C33.043 11.8315 33.7964 11.8401 34.6767 11.8575C35.574 11.8575 36.4628 11.8662 37.3432 11.8835C38.2235 11.9008 39.0108 11.9182 39.7049 11.9355C40.416 11.9355 40.8985 11.9355 41.1524 11.9355C41.3725 11.9355 41.5503 11.9182 41.6857 11.8835C41.8381 11.8315 41.9566 11.7794 42.0412 11.7274C42.1428 11.6754 42.219 11.632 42.2698 11.5973C42.3206 11.5453 42.3629 11.5193 42.3968 11.5193C42.4814 11.5193 42.5576 11.58 42.6253 11.7014C42.71 11.8055 42.7777 11.9442 42.8285 12.1176C42.8962 12.2737 42.947 12.4558 42.9808 12.6639C43.0147 12.8721 43.0316 13.0802 43.0316 13.2883C43.0316 13.6005 42.9893 13.93 42.9047 14.2769C42.82 14.6064 42.693 14.9099 42.5237 15.1874C42.3544 15.4475 42.1428 15.6643 41.8889 15.8378C41.6349 16.0112 41.3386 16.0979 41 16.0979C40.8138 16.0979 40.4667 16.0979 39.9588 16.0979C39.4679 16.0806 38.9007 16.0632 38.2574 16.0459C37.6141 16.0285 36.9369 16.0112 36.2258 15.9938C35.5147 15.9765 34.8545 15.9592 34.245 15.9418V46.1451Z"/>
    
</symbol></svg>