<svg width="22" height="20" viewBox="0 0 22 20" fill="none" xmlns="http://www.w3.org/2000/svg">
    <path d="M10.8367 19C13.4456 19 15.9476 18.0518 17.7923 16.364C19.6371 14.6761 20.6734 12.3869 20.6734 10C20.6734 7.61305 19.6371 5.32387 17.7923 3.63604C15.9476 1.94821 13.4456 1 10.8367 1C8.22786 1 5.72585 1.94821 3.88111 3.63604C2.03637 5.32387 1 7.61305 1 10C1 12.3869 2.03637 14.6761 3.88111 16.364C5.72585 18.0518 8.22786 19 10.8367 19ZM6.73809 10C6.73809 9.00544 7.1699 8.05161 7.93855 7.34835C8.70719 6.64509 9.74969 6.25 10.8367 6.25" fill="#D9D9D9" />
    <path d="M6.73809 10C6.73809 9.00544 7.1699 8.05161 7.93855 7.34835C8.70719 6.64509 9.74969 6.25 10.8367 6.25M10.8367 19C13.4456 19 15.9476 18.0518 17.7923 16.364C19.6371 14.6761 20.6734 12.3869 20.6734 10C20.6734 7.61305 19.6371 5.32387 17.7923 3.63604C15.9476 1.94821 13.4456 1 10.8367 1C8.22786 1 5.72585 1.94821 3.88111 3.63604C2.03637 5.32387 1 7.61305 1 10C1 12.3869 2.03637 14.6761 3.88111 16.364C5.72585 18.0518 8.22786 19 10.8367 19Z" stroke="#43446C" stroke-width="2" stroke-linecap="round" stroke-linejoin="round" />
</svg>