<svg width="64" height="64" viewBox="0 0 64 64" fill="none" xmlns="http://www.w3.org/2000/svg">
    <rect width="64" height="64" rx="32" fill="url(#paint0_linear_315_52)" />
    <path d="M36.1403 46.0455C36.1403 47.2144 36.0648 48.2115 35.9137 49.0366C35.7794 49.8617 35.5863 50.5322 35.3345 51.0479C35.0826 51.5636 34.772 51.9418 34.4026 52.1824C34.0501 52.4231 33.6639 52.5434 33.2442 52.5434C32.9252 52.5434 32.5726 52.4317 32.1864 52.2082C31.8003 51.9847 31.4309 51.7097 31.0783 51.3831C30.7425 51.0565 30.4571 50.7213 30.2221 50.3774C30.0038 50.0336 29.8947 49.7328 29.8947 49.475C29.8947 49.3031 29.9115 49.1913 29.9451 49.1398C29.9954 49.1054 30.0542 49.0882 30.1213 49.0882C30.2053 49.1054 30.2976 49.1312 30.3984 49.1655C30.5159 49.1999 30.6418 49.2171 30.7761 49.2171C31.2462 49.2171 31.582 48.9163 31.7835 48.3146C32.0018 47.6958 32.1109 46.7159 32.1109 45.3751V16.2119C30.5159 16.3494 28.9797 16.6416 27.5022 17.0886C26.0247 17.5183 24.7235 18.1716 23.5987 19.0483C22.4738 19.925 21.5755 21.0681 20.904 22.4777C20.2324 23.8701 19.8966 25.5891 19.8966 27.6348C19.8966 28.5459 19.9805 29.371 20.1484 30.1102C20.3331 30.8322 20.5682 31.4854 20.8536 32.0699C21.139 32.6543 21.4496 33.17 21.7854 33.617C22.138 34.0639 22.4822 34.4593 22.8179 34.8031C23.1034 34.7171 23.3048 34.7515 23.4224 34.9062C23.5399 35.061 23.5987 35.2758 23.5987 35.5509C23.5987 35.8947 23.5231 36.2557 23.372 36.6339C23.2377 36.9949 23.053 37.3301 22.8179 37.6395C22.5829 37.9317 22.3143 38.181 22.0121 38.3873C21.7266 38.5764 21.4328 38.6709 21.1306 38.6709C20.9963 38.6709 20.862 38.6537 20.7277 38.6193C20.6101 38.5849 20.4842 38.5076 20.3499 38.3873C19.9805 38.1122 19.5356 37.6653 19.0151 37.0464C18.4947 36.4104 17.9994 35.6282 17.5293 34.7C17.0592 33.7717 16.6562 32.7145 16.3204 31.5284C15.9847 30.325 15.8168 29.0272 15.8168 27.6348C15.8168 25.0906 16.2785 22.8473 17.2019 20.9048C18.1253 18.9623 19.4097 17.3378 21.0551 16.0314C22.7004 14.7077 24.648 13.7107 26.8978 13.0403C29.1643 12.3699 31.6408 12.0346 34.3271 12.0346C34.9483 12.0346 35.6954 12.0432 36.5685 12.0604C37.4583 12.0604 38.3398 12.069 39.2128 12.0862C40.0859 12.1034 40.8666 12.1206 41.5549 12.1378C42.2601 12.1378 42.7386 12.1378 42.9904 12.1378C43.2087 12.1378 43.385 12.1206 43.5193 12.0862C43.6704 12.0346 43.7879 11.9831 43.8719 11.9315C43.9726 11.8799 44.0482 11.837 44.0985 11.8026C44.1489 11.751 44.1909 11.7252 44.2245 11.7252C44.3084 11.7252 44.384 11.7854 44.4511 11.9057C44.5351 12.0089 44.6022 12.1464 44.6526 12.3183C44.7197 12.473 44.7701 12.6535 44.8037 12.8598C44.8373 13.0661 44.8541 13.2723 44.8541 13.4786C44.8541 13.788 44.8121 14.1147 44.7281 14.4585C44.6442 14.7851 44.5183 15.0859 44.3504 15.361C44.1825 15.6188 43.9726 15.8337 43.7208 16.0056C43.4689 16.1775 43.1751 16.2634 42.8393 16.2634C42.6546 16.2634 42.3105 16.2634 41.8068 16.2634C41.3199 16.2462 40.7574 16.2291 40.1194 16.2119C39.4814 16.1947 38.8099 16.1775 38.1047 16.1603C37.3996 16.1431 36.7448 16.1259 36.1403 16.1087V46.0455Z" fill="#DDDDDF" />
    <path d="M21.4055 38.6507C21.1625 38.7112 18.9383 38.7356 18.7326 38.6507L20.4943 37.6817C20.4943 37.6817 21.6485 38.5901 21.4055 38.6507Z" fill="#DDDDDF" />
    <path d="M33.798 52.4586C33.5119 52.5714 32.966 52.6302 31.2466 52.7009L31.0644 51.6107L32.3401 51.1868L33.8588 51.7924L33.798 52.4586Z" fill="#DDDDDF" />
    <path d="M44.4288 11.8827C44.339 11.6611 43.9769 11.5702 42.3999 11.5193L42.5457 12.3671C42.7279 12.4277 43.1045 12.5609 43.1531 12.6094C43.2017 12.6578 44.0238 12.1451 44.4288 11.8827Z" fill="#DDDDDF" />
    <path d="M34.245 46.1451C34.245 47.3244 34.1688 48.3303 34.0164 49.1628C33.881 49.9953 33.6863 50.6717 33.4324 51.192C33.1784 51.7123 32.8652 52.0938 32.4928 52.3366C32.1372 52.5794 31.7478 52.7009 31.3246 52.7009C31.0029 52.7009 30.6474 52.5881 30.258 52.3627C29.8686 52.1372 29.4962 51.8597 29.1406 51.5302C28.802 51.2007 28.5142 50.8625 28.2772 50.5156C28.0571 50.1687 27.9471 49.8652 27.9471 49.6051C27.9471 49.4316 27.964 49.3189 27.9979 49.2669C28.0487 49.2322 28.1079 49.2149 28.1756 49.2149C28.2603 49.2322 28.3534 49.2582 28.455 49.2929C28.5735 49.3276 28.7005 49.3449 28.8359 49.3449C29.3099 49.3449 29.6485 49.0414 29.8517 48.4344C30.0718 47.8101 30.1818 46.8215 30.1818 45.4687V16.0459C28.5735 16.1846 27.0244 16.4795 25.5346 16.9304C24.0447 17.364 22.7327 18.023 21.5984 18.9075C20.4641 19.792 19.5583 20.9453 18.8811 22.3675C18.2039 23.7723 17.8653 25.5066 17.8653 27.5705C17.8653 28.4897 17.95 29.3221 18.1193 30.0679C18.3055 30.7963 18.5425 31.4554 18.8303 32.045C19.1181 32.6347 19.4313 33.155 19.7699 33.6059C20.1255 34.0569 20.4725 34.4557 20.8111 34.8026C21.0989 34.7159 21.3021 34.7506 21.4206 34.9067C21.5391 35.0628 21.5984 35.2795 21.5984 35.557C21.5984 35.9039 21.5222 36.2681 21.3698 36.6497C21.2344 37.0139 21.0481 37.3521 20.8111 37.6642C20.5741 37.9591 20.3032 38.2106 19.9985 38.4187C19.7107 38.6095 19.4144 38.7048 19.1097 38.7048C18.9742 38.7048 18.8388 38.6875 18.7033 38.6528C18.5848 38.6181 18.4579 38.5401 18.3224 38.4187C17.95 38.1412 17.5013 37.6903 16.9765 37.0659C16.4517 36.4242 15.9522 35.6351 15.4782 34.6985C15.0042 33.762 14.5978 32.6954 14.2592 31.4987C13.9206 30.2847 13.7513 28.9753 13.7513 27.5705C13.7513 25.0037 14.2169 22.7404 15.1481 20.7806C16.0792 18.8208 17.3743 17.1819 19.0335 15.8638C20.6926 14.5283 22.6565 13.5224 24.9251 12.846C27.2106 12.1697 29.7078 11.8315 32.4166 11.8315C33.043 11.8315 33.7964 11.8401 34.6767 11.8575C35.574 11.8575 36.4628 11.8662 37.3432 11.8835C38.2235 11.9008 39.0108 11.9182 39.7049 11.9355C40.416 11.9355 40.8985 11.9355 41.1524 11.9355C41.3725 11.9355 41.5503 11.9182 41.6857 11.8835C41.8381 11.8315 41.9566 11.7794 42.0412 11.7274C42.1428 11.6754 42.219 11.632 42.2698 11.5973C42.3206 11.5453 42.3629 11.5193 42.3968 11.5193C42.4814 11.5193 42.5576 11.58 42.6253 11.7014C42.71 11.8055 42.7777 11.9442 42.8285 12.1176C42.8962 12.2737 42.947 12.4558 42.9808 12.6639C43.0147 12.8721 43.0316 13.0802 43.0316 13.2883C43.0316 13.6005 42.9893 13.93 42.9047 14.2769C42.82 14.6064 42.693 14.9099 42.5237 15.1874C42.3544 15.4475 42.1428 15.6643 41.8889 15.8378C41.6349 16.0112 41.3386 16.0979 41 16.0979C40.8138 16.0979 40.4667 16.0979 39.9588 16.0979C39.4679 16.0806 38.9007 16.0632 38.2574 16.0459C37.6141 16.0285 36.9369 16.0112 36.2258 15.9938C35.5147 15.9765 34.8545 15.9592 34.245 15.9418V46.1451Z" fill="white" />
    <defs>
        <linearGradient id="paint0_linear_315_52" x1="32" y1="6.93168e-07" x2="43.6294" y2="61.6284" gradientUnits="userSpaceOnUse">
            <stop stop-color="#430DBF" />
            <stop offset="1" stop-color="#8450FB" />
        </linearGradient>
    </defs>
</svg>